#N canvas 1346 869 566 173 12;
#X obj 100 40 unpack f f;
#X obj 40 170 spigot;
#X obj 160 80 loadbang;
#X obj 130 80 \$1;
#X obj 40 10 inlet;
#X obj 40 200 outlet;
#X obj 40 40 t b f;
#X obj 100 80 ==;
#X obj 100 110 sel 1;
#X msg 100 140 0;
#X msg 40 70 1;
#X obj 100 10 r seq_write_array;
#X connect 0 1 7 0;
#X connect 1 0 5 0;
#X connect 2 0 3 0;
#X connect 3 0 7 1;
#X connect 4 0 6 0;
#X connect 6 0 10 0;
#X connect 6 1 1 0;
#X connect 7 0 8 0;
#X connect 8 0 9 0;
#X connect 9 0 1 1;
#X connect 10 0 1 1;
#X connect 11 0 0 0;
