#N canvas 4 0 1440 857 10;
#X obj 70 180 + 1;
#X obj 330 100 f;
#X obj 30 350 change;
#X obj 30 220 t f f;
#X obj 250 180 tabwrite;
#X obj 30 180 i;
#X obj 30 300 i;
#X obj 30 560 hradio 20 1 0 32 empty \$0-current_step empty -11 10 0 10 #9f9f9f #ff8300 #000000 0;
#X obj 30 390 \$1;
#X obj 30 410 until;
#X obj 60 430 + 1;
#X obj 30 430 i;
#X obj 30 450 mod \$1;
#X obj 30 470 pack f f;
#X obj 30 500 clone reader \$1;
#X obj 30 370 t b f;
#X obj 150 390 loadbang;
#X obj 150 410 \$1;
#X obj 150 430 until;
#X obj 180 450 + 1;
#X obj 150 450 i;
#X obj 150 470 mod \$1;
#X obj 150 500 clone writer \$1;
#X obj 30 120 metro 0.25 60 permin, f 10;
#X msg 30 50 tempo \$1 permin;
#X obj 30 30 * 2;
#X obj 30 200 mod 64;
#X obj 30 280 / 2;
#X obj 140 70 r seq_play;
#X obj 140 90 t f f;
#X obj 170 120 sel 0;
#X msg 170 140 0;
#X obj 250 100 unpack f f;
#X msg 270 150 set \$1;
#X obj 250 50 t l b, f 9;
#X msg 270 130 symbol seq_quantum\$1;
#X obj 350 70 expr if($f1 == 63 \, 0 \, ceil(($f1/2)));
#X obj 520 440 vline~;
#X obj 430 470 *~;
#X obj 430 370 t b b;
#X obj 430 290 div 4;
#X obj 480 370 t b b;
#X msg 480 410 800;
#X obj 430 440 osc~;
#X obj 430 310 change;
#X obj 430 340 sel 0 4;
#X msg 430 410 1600;
#X msg 520 410 1 0.25 \, 0 100 0.25;
#X obj 30 320 t f f;
#X obj 430 500 s~ seq_metro;
#X obj 30 250 s \$0-high_res_counter;
#X obj 350 40 r \$0-high_res_counter;
#X obj 250 10 r seq_write_array;
#X obj 80 320 s \$0-current_step;
#X obj 430 270 r \$0-current_step;
#X obj 30 10 r seq_bpm;
#X obj 270 390 until;
#X obj 270 470 list store;
#X obj 270 360 t b b l;
#X obj 270 420 f;
#X obj 310 420 + 1;
#X msg 330 390 0, f 2;
#X msg 270 450 get \$1 1;
#X msg 270 490 \; seq_quantum\$1 const 0;
#X obj 270 340 r seq_clear;
#X connect 0 0 5 1;
#X connect 1 0 4 1;
#X connect 2 0 15 0;
#X connect 3 0 50 0;
#X connect 3 1 27 0;
#X connect 5 0 0 0;
#X connect 5 0 26 0;
#X connect 6 0 48 0;
#X connect 8 0 9 0;
#X connect 9 0 11 0;
#X connect 10 0 11 1;
#X connect 11 0 10 0;
#X connect 11 0 12 0;
#X connect 12 0 13 0;
#X connect 13 0 14 0;
#X connect 15 0 8 0;
#X connect 15 1 13 1;
#X connect 16 0 17 0;
#X connect 17 0 18 0;
#X connect 18 0 20 0;
#X connect 19 0 20 1;
#X connect 20 0 19 0;
#X connect 20 0 21 0;
#X connect 21 0 22 0;
#X connect 23 0 5 0;
#X connect 24 0 23 0;
#X connect 25 0 24 0;
#X connect 26 0 3 0;
#X connect 27 0 6 0;
#X connect 28 0 29 0;
#X connect 29 0 23 0;
#X connect 29 1 30 0;
#X connect 30 0 31 0;
#X connect 31 0 5 1;
#X connect 32 0 4 0;
#X connect 32 1 35 0;
#X connect 33 0 4 0;
#X connect 34 0 32 0;
#X connect 34 1 1 0;
#X connect 35 0 33 0;
#X connect 36 0 1 1;
#X connect 37 0 38 1;
#X connect 38 0 49 0;
#X connect 39 0 47 0;
#X connect 39 1 46 0;
#X connect 40 0 44 0;
#X connect 41 0 47 0;
#X connect 41 1 42 0;
#X connect 42 0 43 0;
#X connect 43 0 38 0;
#X connect 44 0 45 0;
#X connect 45 0 39 0;
#X connect 45 1 39 0;
#X connect 45 2 41 0;
#X connect 46 0 43 0;
#X connect 47 0 37 0;
#X connect 48 0 2 0;
#X connect 48 1 53 0;
#X connect 51 0 36 0;
#X connect 52 0 34 0;
#X connect 54 0 40 0;
#X connect 55 0 25 0;
#X connect 56 0 59 0;
#X connect 57 0 63 0;
#X connect 57 1 56 1;
#X connect 58 0 56 0;
#X connect 58 1 61 0;
#X connect 58 2 57 1;
#X connect 59 0 60 0;
#X connect 59 0 62 0;
#X connect 60 0 59 1;
#X connect 61 0 59 1;
#X connect 62 0 57 0;
#X connect 64 0 58 0;
#X coords 0 -1 1 1 646 30 2 27 555;
