#N canvas 130 130 450 300 12;
#X obj 30 30 inlet;
#X obj 30 210 outlet~;
#X obj 30 120 vline~;
#X obj 30 150 osc~;
#X obj 30 180 *~;
#X obj 120 120 vline~;
#X obj 30 60 t b f;
#X obj 120 60 / 127;
#X msg 30 90 150 \, 50 70;
#X msg 120 90 \$1 1 \, 0 100 1;
#X connect 0 0 6 0;
#X connect 2 0 3 0;
#X connect 3 0 4 0;
#X connect 4 0 1 0;
#X connect 5 0 4 1;
#X connect 6 0 8 0;
#X connect 6 1 7 0;
#X connect 7 0 9 0;
#X connect 8 0 2 0;
#X connect 9 0 5 0;
