#N canvas 962 729 950 313 12;
#X obj 20 110 moses 1;
#X obj 20 50 avoid_freshly_written \$1;
#X obj 20 20 inlet;
#X obj 20 140 s seq_out\$1;
#X obj 20 80 tabread seq_quantum\$1;
#X connect 0 1 3 0;
#X connect 1 0 4 0;
#X connect 2 0 1 0;
#X connect 4 0 0 0;
