#N canvas 4 4 1440 857 12;
#X obj 30 20 noise~;
#X obj 30 50 lop~ 3000;
#X obj 30 80 hip~ 1000;
#X obj 30 180 *~;
#X obj 60 110 osc~ 180;
#X obj 60 140 *~ 0.5;
#X obj 140 140 vline~;
#X obj 140 50 inlet;
#X obj 30 210 outlet~;
#X obj 140 80 / 127;
#X msg 140 110 \$1 1 \, 0 150 1;
#X connect 0 0 1 0;
#X connect 1 0 2 0;
#X connect 2 0 3 0;
#X connect 3 0 8 0;
#X connect 4 0 5 0;
#X connect 5 0 3 0;
#X connect 6 0 3 1;
#X connect 7 0 9 0;
#X connect 9 0 10 0;
#X connect 10 0 6 0;
