#N canvas 713 0 718 848 12;
#X obj 440 80 cnv 19 315 250 empty empty mixer 15 30 0 30 #c6ffc7 #404040 0;
#X obj 630 150 catch~ mst;
#X obj 630 180 *~;
#X obj 670 180 hsl 40 19 0 1 0 0 empty empty mst\ vol. -2 27 0 10 #ff0400 #000000 #000000 0 1;
#X obj 630 290 dac~;
#X obj 660 260 *~;
#X obj 660 230 r~ seq_metro;
#X obj 700 260 hsl 40 19 0 1 0 0 empty empty metro.\ vol. -3 27 0 9 #ff0400 #000000 #000000 0 1;
#X obj 450 150 r kick;
#X obj 540 150 r snare;
#X obj 450 180 kick;
#X obj 540 180 snare;
#X obj 450 240 throw~ mst;
#X obj 540 240 throw~ mst;
#X obj 450 210 *~;
#X obj 490 210 hsl 40 19 0 1 0 0 empty empty kick\ vol. -2 -7 0 9 #ff0400 #000000 #000000 0 1;
#X obj 540 210 *~;
#X obj 580 210 hsl 40 19 0 1 0 0 empty empty snare\ vol. -2 -7 0 9 #ff0400 #000000 #000000 0 1;
#X obj 20 80 cnv 19 390 410 empty empty controls\ &\ how\ to 15 30 0 30 #ffc7c6 #404040 0;
#X obj 30 150 tgl 20 0 empty empty play/stop 0 -10 0 8 #ffffff #000000 #000000 0 1;
#X obj 30 180 s seq_play;
#X obj 130 150 nbx 5 18 0 240 0 1 empty empty set\ bpm 0 -10 0 8 #ffffff #000000 #000000 120 256;
#X obj 130 180 s seq_bpm;
#X obj 30 220 key;
#X obj 30 250 sel 107 115, f 21;
#X obj 30 340 s seq_in0;
#X obj 110 340 s seq_in1;
#X obj 50 370 s kick;
#X obj 120 370 s snare;
#X obj 220 220 r seq_out0;
#X obj 310 220 r seq_out1;
#X obj 220 250 s kick;
#X obj 310 250 s snare;
#X obj 310 180 s seq_clear;
#X msg 340 150 0 1;
#X text 30 400 play the kick with keyboard letter k and the snare with keyboard letter s, f 23;
#X obj 30 310 + 80;
#X obj 110 310 + 80;
#X obj 30 280 random 48;
#X obj 110 280 random 48;
#X obj 220 150 tgl 19 0 empty empty enable\ rec 0 -10 0 8 #fcfcfc #000000 #000000 0 1;
#X obj 220 180 s seq_rec;
#X obj 20 20 drum_sequencer 2;
#X obj 310 150 bng 19 250 50 0 empty empty clear\ pattern\ 0\ and\ 1 0 -10 0 8 #fcfcfc #000000 #000000;
#X text 220 290 - create a drum sequencer with drum_sequencer X where X is the number of different patterns you need \, here we use 2 \, one for each drum sound, f 26;
#X text 220 380 - send a value between 0 and 127 to seq_inX where X is the pattern number, f 26;
#X text 220 430 - receive with seq_outX;
#X connect 1 0 2 0;
#X connect 2 0 4 0;
#X connect 2 0 4 1;
#X connect 3 0 2 1;
#X connect 5 0 4 0;
#X connect 5 0 4 1;
#X connect 6 0 5 0;
#X connect 7 0 5 1;
#X connect 8 0 10 0;
#X connect 9 0 11 0;
#X connect 10 0 14 0;
#X connect 11 0 16 0;
#X connect 14 0 12 0;
#X connect 15 0 14 1;
#X connect 16 0 13 0;
#X connect 17 0 16 1;
#X connect 19 0 20 0;
#X connect 21 0 22 0;
#X connect 23 0 24 0;
#X connect 24 0 38 0;
#X connect 24 1 39 0;
#X connect 29 0 31 0;
#X connect 30 0 32 0;
#X connect 34 0 33 0;
#X connect 36 0 25 0;
#X connect 36 0 27 0;
#X connect 37 0 26 0;
#X connect 37 0 28 0;
#X connect 38 0 36 0;
#X connect 39 0 37 0;
#X connect 40 0 41 0;
#X connect 43 0 34 0;
