#N canvas 410 553 1502 491 12;
#X obj 20 300 file stat;
#X obj 20 330 route mtime;
#X msg 20 360 symbol \$3_\$2_\$1-\$4_\$5_\$6;
#X obj 280 80 file patchpath;
#X msg 220 80 start;
#X msg 130 80 stop;
#X obj 20 450 file mkdir;
#X obj 20 40 t b b;
#X obj 460 80 symbol \$1;
#X obj 280 200 t s s;
#X obj 280 110 t s s;
#X msg 280 260 open -bytes 3 \$1;
#X msg 20 210 0;
#X obj 110 490 pack s s s;
#X obj 460 110 t s s;
#X obj 20 270 t s s;
#X msg 110 520 list \$2 \$1/\$3.wav;
#X obj 110 550 file move;
#X obj 570 350 inlet~;
#X obj 570 290 loadbang;
#X obj 570 440 snapshot~;
#X obj 600 410 bang~;
#X obj 570 470 change;
#X obj 410 350 inlet~;
#X msg 570 320 10000;
#X obj 570 380 expr~ $v1 != 10000;
#X obj 570 490 sel 1 0;
#X obj 570 550 symbol \$1;
#X obj 850 490 loadbang;
#X obj 860 110 metro 1 60 permin;
#X obj 910 140 + 1;
#X obj 560 120 cnv 18 1 1 empty \$2-timer_canvas 0h0m0s -6 17 1 25 #ffffff #404040 0;
#X msg 860 40 1;
#X obj 220 10 r \$2-recorder_start;
#X obj 20 10 r \$2-recorder_stop;
#X obj 860 10 r \$2-recorder_start;
#X obj 1000 10 r \$2-recorder_stop;
#X obj 410 80 \$2;
#X obj 220 40 t b b b b;
#X obj 280 140 pack s f s;
#X msg 280 170 symbol \$1/tmp_\$3_\$2.wav;
#X obj 20 390 pack s s f;
#X obj 340 110 t f f;
#X msg 20 420 symbol \$2/\$1_\$3;
#X obj 280 230 text set \$1-\$2-file_name;
#X obj 370 10 text define \$1-\$2-file_name;
#X obj 20 240 text get \$1-\$2-file_name;
#X obj 410 380 s~ \$1-\$2-left_channel;
#X obj 270 440 s \$1-\$2-left_inlet;
#X obj 630 350 s~ \$1-\$2-right_channel;
#N canvas 410 816 1502 228 \$1-\$2-writesf 0;
#X obj 145 115 r melodia1-1099-left_inlet;
#X obj 400 115 r~ melodia1-1099-left_channel;
#X obj 145 150 writesf~ 1;
#X connect 0 0 2 0;
#X connect 1 0 2 0;
#X restore 730 430 pd \$1-\$2-writesf;
#X obj 800 720 s pd-\$1-\$2-writesf;
#X obj 570 580 pack s f;
#X obj 570 520 t b b;
#X obj 650 550 \$2;
#X msg 570 610 clear \, obj 145 115 r \$1-\$2-left_inlet \, obj 400 115 r~ \$1-\$2-left_channel \, obj 755 115 r~ \$1-\$2-right_channel \, obj 145 150 writesf~ 2 \, connect 0 0 3 0 \, connect 1 0 3 0 \, connect 2 0 3 1, f 32;
#X obj 850 550 symbol \$1;
#X obj 850 580 pack s f;
#X obj 850 520 t b b;
#X obj 930 550 \$2;
#X msg 850 610 clear \, obj 145 115 r \$1-\$2-left_inlet \, obj 400 115 r~ \$1-\$2-left_channel \, obj 145 150 writesf~ 1 \, connect 0 0 2 0 \, connect 1 0 2 0, f 32;
#X obj 860 170 t f f f;
#X obj 980 200 div 3600;
#X obj 920 200 div 60;
#X obj 920 220 mod 60;
#X obj 860 200 mod 60;
#X obj 860 260 pack f f f;
#X msg 860 290 symbol \$3h\$2m\$1s;
#X obj 860 350 s \$2-timer_canvas;
#X msg 860 320 label \$1;
#X msg 1080 70 symbol 0h0m0s;
#X msg 1000 70 -1;
#X msg 1040 70 0;
#X obj 1000 40 t b b b;
#X obj 860 140 int 0;
#X connect 0 0 1 0;
#X connect 1 0 2 0;
#X connect 2 0 41 0;
#X connect 3 0 10 0;
#X connect 4 0 48 0;
#X connect 5 0 48 0;
#X connect 6 0 13 0;
#X connect 7 0 12 0;
#X connect 7 1 5 0;
#X connect 8 0 14 0;
#X connect 9 0 44 0;
#X connect 9 1 11 0;
#X connect 10 0 41 1;
#X connect 10 1 39 0;
#X connect 11 0 48 0;
#X connect 12 0 46 0;
#X connect 13 0 16 0;
#X connect 14 0 13 2;
#X connect 14 1 39 2;
#X connect 15 0 0 0;
#X connect 15 1 13 1;
#X connect 16 0 17 0;
#X connect 18 0 25 0;
#X connect 18 0 49 0;
#X connect 19 0 24 0;
#X connect 20 0 22 0;
#X connect 21 0 20 0;
#X connect 22 0 26 0;
#X connect 23 0 47 0;
#X connect 24 0 18 0;
#X connect 25 0 20 0;
#X connect 26 0 53 0;
#X connect 26 1 58 0;
#X connect 27 0 52 0;
#X connect 28 0 58 0;
#X connect 29 0 74 0;
#X connect 30 0 74 1;
#X connect 32 0 29 0;
#X connect 33 0 38 0;
#X connect 34 0 7 0;
#X connect 35 0 32 0;
#X connect 36 0 73 0;
#X connect 37 0 42 0;
#X connect 38 0 4 0;
#X connect 38 1 3 0;
#X connect 38 2 37 0;
#X connect 38 3 8 0;
#X connect 39 0 40 0;
#X connect 40 0 9 0;
#X connect 41 0 43 0;
#X connect 42 0 41 2;
#X connect 42 1 39 1;
#X connect 43 0 6 0;
#X connect 46 0 15 0;
#X connect 52 0 55 0;
#X connect 53 0 27 0;
#X connect 53 1 54 0;
#X connect 54 0 52 1;
#X connect 55 0 51 0;
#X connect 56 0 57 0;
#X connect 57 0 60 0;
#X connect 58 0 56 0;
#X connect 58 1 59 0;
#X connect 59 0 57 1;
#X connect 60 0 51 0;
#X connect 61 0 65 0;
#X connect 61 1 63 0;
#X connect 61 2 62 0;
#X connect 62 0 66 2;
#X connect 63 0 64 0;
#X connect 64 0 66 1;
#X connect 65 0 66 0;
#X connect 66 0 67 0;
#X connect 67 0 69 0;
#X connect 69 0 68 0;
#X connect 70 0 69 0;
#X connect 71 0 74 0;
#X connect 72 0 29 0;
#X connect 73 0 70 0;
#X connect 73 1 71 0;
#X connect 73 2 72 0;
#X connect 74 0 30 0;
#X connect 74 0 61 0;
#X coords -1 -1 1 1 200 50 1 550 100;
