#N canvas 4 0 1440 857 12;
#X obj 620 40 cnv 19 380 480 empty empty sounds\ &\ mixer 15 30 0 30 #c6ffc7 #404040 0;
#X obj 680 150 hsl 40 19 0 0.3 0 0 empty empty osc1\ vol. -2 -7 0 9 #ff0400 #000000 #000000 0 1;
#X obj 640 150 *~;
#X obj 640 110 osc~ 440;
#X obj 740 110 phasor~ 800;
#X obj 840 220 hsl 40 19 0 5 0 0 empty empty pan\ speed -2 -7 0 9 #faff00 #000000 #000000 0 1;
#X obj 780 150 hsl 40 19 0 0.3 0 0 empty empty phasor\ vol. -2 -7 0 9 #ff0400 #000000 #000000 0 1;
#X obj 740 150 *~;
#X obj 870 110 osc~ 1500;
#X obj 910 150 hsl 40 19 0 0.3 0 0 empty empty osc2\ vol. -2 -7 0 9 #ff0400 #000000 #000000 0 1;
#X obj 870 150 *~;
#X obj 640 350 *~;
#X obj 680 350 hsl 40 19 0 1 0 0 empty empty mst\ vol. -2 27 0 10 #ff0400 #000000 #000000 0 1;
#X obj 680 410 dac~;
#X obj 640 320 snake~ out;
#X obj 730 350 *~;
#X obj 640 290 catch~ mst 2;
#X obj 870 380 throw~ mst;
#X obj 740 220 snake~ in;
#X obj 30 40 cnv 19 550 420 empty empty recorders\ &\ how\ to 15 30 0 30 #ffc7c6 #404040 0;
#X obj 50 130 recorder osc1 \$0;
#X obj 50 230 recorder osc2 \$0;
#X obj 280 160 recorder phasor \$0;
#X obj 280 130 snake~ out;
#X obj 50 390 bng 18 250 50 0 empty empty empty 0 -9 0 12 #fcfcfc #000000 #000000;
#X obj 220 390 bng 18 250 50 0 empty empty empty 0 -9 0 12 #fcfcfc #000000 #000000;
#X obj 50 420 s \$0-recorder_start;
#X obj 220 420 s \$0-recorder_stop;
#X text 280 230 - create a recorder with recorder X Y where X is the name of the track and Y is an identifier for a particular recording session or group of tracks \, I'm using \$0 here because I only need one, f 41;
#X text 280 310 - send a bang to X-recorder_start or X-recorder_stop \, where X is the identifier mentioned above \, to start or stop the recording, f 41;
#X obj 870 280 snake~ in;
#X obj 870 310 throw~ mst;
#X obj 870 450 snake~ in;
#X obj 870 480 throw~ mst;
#X obj 640 180 send~ osc1;
#X obj 870 180 send~ osc2;
#X obj 870 250 receive~ osc1;
#X obj 870 350 receive~ phasor 2;
#X obj 740 250 send~ phasor 2;
#X obj 870 420 receive~ osc2;
#X obj 50 100 receive~ osc1;
#X obj 280 100 receive~ phasor;
#X obj 50 200 receive~ osc2;
#X obj 740 180 ../u/autopan;
#X connect 1 0 2 1;
#X connect 2 0 34 0;
#X connect 3 0 2 0;
#X connect 4 0 7 0;
#X connect 5 0 43 1;
#X connect 6 0 7 1;
#X connect 7 0 43 0;
#X connect 8 0 10 0;
#X connect 9 0 10 1;
#X connect 10 0 35 0;
#X connect 11 0 13 0;
#X connect 12 0 11 1;
#X connect 12 0 15 1;
#X connect 14 0 11 0;
#X connect 14 1 15 0;
#X connect 15 0 13 1;
#X connect 16 0 14 0;
#X connect 18 0 38 0;
#X connect 23 0 22 0;
#X connect 23 1 22 1;
#X connect 24 0 26 0;
#X connect 25 0 27 0;
#X connect 30 0 31 0;
#X connect 32 0 33 0;
#X connect 36 0 30 0;
#X connect 36 0 30 1;
#X connect 37 0 17 0;
#X connect 39 0 32 0;
#X connect 39 0 32 1;
#X connect 40 0 20 0;
#X connect 41 0 23 0;
#X connect 42 0 21 0;
#X connect 43 0 18 0;
#X connect 43 1 18 1;
