#N canvas 962 27 950 1015 12;
#X obj 90 70 osc~;
#X obj 90 100 +~ 1;
#X obj 90 130 /~ 2;
#X obj 90 160 expr~ 1 - $v1;
#X obj 30 190 *~;
#X obj 90 190 *~;
#X obj 30 220 outlet~;
#X obj 90 220 outlet~;
#X obj 30 40 inlet~;
#X obj 90 40 inlet;
#X connect 0 0 1 0;
#X connect 1 0 2 0;
#X connect 2 0 3 0;
#X connect 2 0 5 1;
#X connect 3 0 4 1;
#X connect 4 0 6 0;
#X connect 5 0 7 0;
#X connect 8 0 4 0;
#X connect 8 0 5 0;
#X connect 9 0 0 0;
