#N canvas 962 553 950 491 10;
#X obj 20 20 inlet;
#N canvas 962 729 950 315 receive-\$0 0;
#X restore 240 20 pd receive-\$0;
#X obj 240 50 r out-\$0;
#X obj 240 80 outlet;
#X msg 20 80 clear \, obj 145 115 r \$1 \, obj 145 150 s out-\$2 \, connect 0 0 1 0, f 32;
#X obj 20 120 s pd-receive-\$0;
#X obj 20 50 pack s \$0;
#X connect 0 0 6 0;
#X connect 2 0 3 0;
#X connect 4 0 5 0;
#X connect 6 0 4 0;
