#N canvas 494 546 950 315 12;
#X obj 60 30 inlet;
#X obj 60 150 spigot;
#X obj 60 180 outlet;
#X obj 120 110 value;
#X obj 130 60 symbol \$1;
#X obj 120 140 ==;
#X obj 130 30 loadbang;
#X obj 180 90 list store \$2;
#X obj 180 110 route float symbol;
#X obj 180 170 value;
#X obj 180 140 t b s;
#X obj 60 60 t a b b;
#X connect 0 0 11 0;
#X connect 1 0 2 0;
#X connect 3 0 5 0;
#X connect 4 0 3 1;
#X connect 5 0 1 1;
#X connect 6 0 4 0;
#X connect 7 0 8 0;
#X connect 8 0 5 1;
#X connect 8 1 10 0;
#X connect 9 0 5 1;
#X connect 10 0 9 0;
#X connect 10 1 9 1;
#X connect 11 0 1 0;
#X connect 11 1 3 0;
#X connect 11 2 7 0;
