#N canvas 962 553 950 489 12;
#X obj 20 80 until;
#X obj 50 110 + 1;
#X obj 20 110 i;
#X obj 20 20 loadbang;
#X obj 140 50 openpanel;
#X obj 220 170 soundfiler;
#X obj 140 20 inlet;
#X obj 370 20 array define databend\$1;
#X obj 220 20 loadbang;
#X obj 270 50 \$1;
#X msg 220 140 read -resize -raw 0 1 2 n \$1 databend\$2;
#X obj 20 50 \$2;
#X obj 20 140 mod \$2;
#X obj 220 110 pack s f;
#X obj 220 200 s databend\$1_sample_size;
#X obj 20 250 clone sample_generator \$2 \$1 \$2;
#X obj 220 50 t b b;
#X obj 220 80 symbol \$3;
#X connect 0 0 2 0;
#X connect 1 0 2 1;
#X connect 2 0 1 0;
#X connect 2 0 12 0;
#X connect 3 0 11 0;
#X connect 4 0 13 0;
#X connect 5 0 14 0;
#X connect 6 0 4 0;
#X connect 8 0 16 0;
#X connect 9 0 13 1;
#X connect 10 0 5 0;
#X connect 11 0 0 0;
#X connect 12 0 15 0;
#X connect 13 0 10 0;
#X connect 16 0 17 0;
#X connect 16 1 9 0;
#X connect 17 0 13 0;
