#N canvas 962 553 950 489 12;
#X obj 20 100 random;
#X obj 20 240 pack f f;
#X obj 20 210 expr $f1 + ($f2 * $f3);
#X obj 60 150 loadbang;
#X obj 20 60 t b f;
#X obj 170 120 /;
#X obj 390 180 samplerate~;
#X obj 390 150 loadbang;
#X msg 20 270 \$1 \$2;
#X obj 250 90 loadbang;
#X obj 60 180 \$1;
#X obj 20 20 r databend\$2_in\$1;
#X obj 100 50 r databend\$2_sample_size, f 18;
#X obj 20 300 tabplay~ databend\$2;
#X obj 20 330 s~ databend\$2_out\$1;
#X obj 250 120 \$3;
#X obj 415 72 loadbang;
#X obj 415 97 \$2;
#X obj 200 210 expr ($f1 * ($f2 / 3)) / 127;
#X connect 0 0 2 0;
#X connect 1 0 8 0;
#X connect 2 0 1 0;
#X connect 3 0 10 0;
#X connect 4 0 0 0;
#X connect 4 1 18 0;
#X connect 5 0 0 1;
#X connect 5 0 2 2;
#X connect 6 0 18 1;
#X connect 7 0 6 0;
#X connect 8 0 13 0;
#X connect 9 0 15 0;
#X connect 10 0 2 1;
#X connect 11 0 4 0;
#X connect 12 0 5 0;
#X connect 13 0 14 0;
#X connect 15 0 5 1;
#X connect 16 0 17 0;
#X connect 18 0 1 1;
