#N canvas 0 0 718 848 12;
#X obj 490 290 cnv 19 415 270 empty empty mixer 15 30 0 30 #c6ffc7 #404040 0;
#X obj 790 390 *~;
#X obj 790 420 dac~;
#X obj 500 360 r~ databend0_out0;
#X obj 640 360 r~ databend0_out1;
#X obj 500 430 r~ databend0_out2;
#X obj 640 430 r~ databend0_out3;
#X obj 500 500 r~ databend1_out0;
#X obj 640 500 r~ databend1_out1;
#X obj 830 390 hsl 60 19 0 0.1 0 0 empty empty volume 0 28 0 12 #ff0400 #000000 #000000 0 1;
#X obj 30 20 cnv 19 270 230 empty empty shellx64.efi 15 30 0 30 #ffe3c6 #404040 0;
#X floatatom 40 120 5 0 127 0 - - - 0;
#X floatatom 180 120 5 0 127 0 - - - 0;
#X floatatom 40 190 5 0 127 0 - - - 0;
#X floatatom 180 190 5 0 127 0 - - - 0;
#X obj 40 150 s databend0_in0;
#X obj 180 150 s databend0_in1;
#X obj 40 220 s databend0_in2;
#X obj 180 220 s databend0_in3;
#X obj 40 80 databend 0 4 src/shellx64.efi;
#X obj 330 20 cnv 19 270 230 empty empty ffmpeg.exe 15 30 0 30 #ffe3c6 #404040 0;
#X obj 340 220 s databend1_in0;
#X obj 480 220 s databend1_in1;
#X obj 340 80 databend 1 2 src/ffmpeg.exe;
#X obj 340 120 tgl 19 0 empty empty empty 0 -10 0 12 #fcfcfc #000000 #000000 0 1;
#X obj 340 190 random 128;
#X obj 480 120 tgl 19 0 empty empty empty 0 -10 0 12 #fcfcfc #000000 #000000 0 1;
#X obj 480 190 random 128;
#X obj 340 160 metro 500;
#X obj 480 160 metro 100;
#X obj 30 290 cnv 19 425 390 empty empty how\ to 15 30 0 30 #ffc7c6 #404040 0;
#X obj 40 380 databend 2 2;
#X obj 40 350 bng 19 250 50 0 empty empty <--\ load\ a\ file\ or\ input\ the\ file\ path\ below 25 10 0 12 #fcfcfc #000000 #000000;
#X text 40 410 databend <instance number> <number of slices> <file path>;
#X floatatom 40 440 5 0 127 0 - - - 0;
#X floatatom 180 440 5 0 127 0 - - - 0;
#X obj 40 470 s databend2_in0;
#X obj 180 470 s databend2_in1;
#X obj 40 560 r~ databend2_out0;
#X obj 180 560 r~ databend2_out1;
#X text 40 630 then receive the sample like so and route it to whatever output you want;
#X obj 500 390 throw~ mst;
#X obj 640 390 throw~ mst;
#X obj 500 460 throw~ mst;
#X obj 640 460 throw~ mst;
#X obj 500 530 throw~ mst;
#X obj 640 530 throw~ mst;
#X obj 790 360 catch~ mst;
#X obj 180 590 throw~ mst;
#X obj 40 590 throw~ mst;
#X text 40 500 send a value between 0 and 127 to databendX_inY where X is the instance number and Y is the slice number. the smaller the number you send \, the shorter the sample will be;
#X connect 1 0 2 0;
#X connect 1 0 2 1;
#X connect 3 0 41 0;
#X connect 4 0 42 0;
#X connect 5 0 43 0;
#X connect 6 0 44 0;
#X connect 7 0 45 0;
#X connect 8 0 46 0;
#X connect 9 0 1 1;
#X connect 11 0 15 0;
#X connect 12 0 16 0;
#X connect 13 0 17 0;
#X connect 14 0 18 0;
#X connect 24 0 28 0;
#X connect 25 0 21 0;
#X connect 26 0 29 0;
#X connect 27 0 22 0;
#X connect 28 0 25 0;
#X connect 29 0 27 0;
#X connect 32 0 31 0;
#X connect 34 0 36 0;
#X connect 35 0 37 0;
#X connect 38 0 49 0;
#X connect 39 0 48 0;
#X connect 47 0 1 0;
